<svg width="192" height="192" viewBox="0 0 192 192" fill="none" xmlns="http://www.w3.org/2000/svg">
<g clip-path="url(#clip0_207_646)">
<mask id="mask0_207_646" style="mask-type:luminance" maskUnits="userSpaceOnUse" x="0" y="0" width="192" height="192">
<path d="M192 0H0V192H192V0Z" fill="white"/>
</mask>
<g mask="url(#mask0_207_646)">
<path d="M192 0H0V192H192V0Z" fill="white"/>
<path d="M192 192H0V140.544H192V192Z" fill="#2498CD"/>
<path d="M34.584 175.752C34.584 177.832 34.064 179.608 33.024 181.08C32 182.536 30.56 183.648 28.704 184.416C26.848 185.184 24.664 185.568 22.152 185.568C20.824 185.568 19.568 185.504 18.384 185.376C17.2 185.248 16.112 185.064 15.12 184.824C14.128 184.584 13.256 184.288 12.504 183.936V180.024C13.704 180.52 15.168 180.984 16.896 181.416C18.624 181.832 20.432 182.04 22.32 182.04C24.08 182.04 25.568 181.808 26.784 181.344C28 180.864 28.92 180.184 29.544 179.304C30.184 178.408 30.504 177.336 30.504 176.088C30.504 174.888 30.24 173.888 29.712 173.088C29.184 172.272 28.304 171.536 27.072 170.88C25.856 170.208 24.192 169.496 22.08 168.744C20.592 168.216 19.28 167.64 18.144 167.016C17.008 166.376 16.056 165.656 15.288 164.856C14.52 164.056 13.936 163.128 13.536 162.072C13.152 161.016 12.96 159.808 12.96 158.448C12.96 156.576 13.432 154.976 14.376 153.648C15.336 152.304 16.656 151.28 18.336 150.576C20.032 149.856 21.976 149.496 24.168 149.496C26.04 149.496 27.768 149.672 29.352 150.024C30.952 150.376 32.416 150.848 33.744 151.44L32.472 154.944C31.208 154.416 29.864 153.976 28.44 153.624C27.032 153.272 25.576 153.096 24.072 153.096C22.568 153.096 21.296 153.32 20.256 153.768C19.232 154.2 18.448 154.816 17.904 155.616C17.36 156.416 17.088 157.368 17.088 158.472C17.088 159.704 17.344 160.728 17.856 161.544C18.384 162.36 19.216 163.088 20.352 163.728C21.504 164.352 23.024 165.008 24.912 165.696C26.976 166.448 28.728 167.248 30.168 168.096C31.608 168.928 32.704 169.952 33.456 171.168C34.208 172.368 34.584 173.896 34.584 175.752ZM71.6321 185.088L67.3121 173.952H53.2481L48.9523 185.088H44.8243L58.5523 149.856H62.2241L75.8561 185.088H71.6321ZM66.0883 170.328L61.9841 159.264C61.8881 158.976 61.7284 158.504 61.5041 157.848C61.2964 157.192 61.0802 156.512 60.8563 155.808C60.6324 155.104 60.4481 154.536 60.3041 154.104C60.1444 154.76 59.9681 155.416 59.7761 156.072C59.6003 156.712 59.4244 157.312 59.2481 157.872C59.0723 158.416 58.9202 158.88 58.7923 159.264L54.6163 170.328H66.0883ZM88.5926 185.088V150H92.6726V181.44H108.248V185.088H88.5926ZM141.673 185.088H122.137V150H141.673V153.6H126.217V164.952H140.785V168.504H126.217V181.488H141.673V185.088ZM177.113 175.752C177.113 177.832 176.593 179.608 175.553 181.08C174.529 182.536 173.089 183.648 171.233 184.416C169.377 185.184 167.193 185.568 164.681 185.568C163.353 185.568 162.097 185.504 160.913 185.376C159.729 185.248 158.641 185.064 157.649 184.824C156.657 184.584 155.785 184.288 155.033 183.936V180.024C156.233 180.52 157.697 180.984 159.425 181.416C161.153 181.832 162.961 182.04 164.849 182.04C166.609 182.04 168.097 181.808 169.313 181.344C170.529 180.864 171.449 180.184 172.073 179.304C172.713 178.408 173.033 177.336 173.033 176.088C173.033 174.888 172.769 173.888 172.241 173.088C171.713 172.272 170.833 171.536 169.601 170.88C168.385 170.208 166.721 169.496 164.609 168.744C163.121 168.216 161.809 167.64 160.673 167.016C159.537 166.376 158.585 165.656 157.817 164.856C157.049 164.056 156.465 163.128 156.065 162.072C155.681 161.016 155.489 159.808 155.489 158.448C155.489 156.576 155.961 154.976 156.905 153.648C157.865 152.304 159.185 151.28 160.865 150.576C162.561 149.856 164.505 149.496 166.697 149.496C168.569 149.496 170.297 149.672 171.881 150.024C173.481 150.376 174.945 150.848 176.273 151.44L175.001 154.944C173.737 154.416 172.393 153.976 170.969 153.624C169.561 153.272 168.105 153.096 166.601 153.096C165.097 153.096 163.825 153.32 162.785 153.768C161.761 154.2 160.977 154.816 160.433 155.616C159.889 156.416 159.617 157.368 159.617 158.472C159.617 159.704 159.873 160.728 160.385 161.544C160.913 162.36 161.745 163.088 162.881 163.728C164.033 164.352 165.553 165.008 167.441 165.696C169.505 166.448 171.257 167.248 172.697 168.096C174.137 168.928 175.233 169.952 175.985 171.168C176.737 172.368 177.113 173.896 177.113 175.752Z" fill="white"/>
<path d="M140.544 0V140.544H192V0H140.544Z" fill="#2498CD"/>
<path d="M151.56 112.68C151.56 114.616 151.896 116.36 152.568 117.912C153.224 119.448 154.184 120.76 155.448 121.848C156.696 122.92 158.208 123.744 159.984 124.32C161.76 124.896 163.76 125.184 165.984 125.184C168.928 125.184 171.488 124.728 173.664 123.816C175.824 122.888 177.496 121.512 178.68 119.688C179.864 117.848 180.456 115.552 180.456 112.8C180.456 111.232 180.328 109.76 180.072 108.384C179.8 106.992 179.464 105.64 179.064 104.328H182.616C183.096 105.608 183.448 106.952 183.672 108.36C183.912 109.768 184.032 111.44 184.032 113.376C184.032 116.944 183.296 119.928 181.824 122.328C180.336 124.712 178.24 126.504 175.536 127.704C172.832 128.888 169.64 129.48 165.96 129.48C163.304 129.48 160.88 129.112 158.688 128.376C156.48 127.624 154.576 126.536 152.976 125.112C151.376 123.672 150.144 121.912 149.28 119.832C148.4 117.736 147.96 115.336 147.96 112.632C147.96 110.856 148.136 109.144 148.488 107.496C148.84 105.848 149.344 104.36 150 103.032L153.456 104.664C152.944 105.784 152.504 107.016 152.136 108.36C151.752 109.688 151.56 111.128 151.56 112.68ZM148.464 79.3759C148.464 76.4959 148.824 74.1197 149.544 72.2477C150.248 70.3596 151.328 68.9518 152.784 68.0237C154.24 67.0956 156.096 66.6317 158.352 66.6317C160.208 66.6317 161.76 66.9677 163.008 67.6397C164.24 68.3117 165.24 69.1918 166.008 70.2797C166.776 71.3676 167.368 72.5276 167.784 73.7599L183.552 64.1357V68.8877L168.912 77.4797V84.7757H183.552V88.8557H148.464V79.3759ZM151.992 79.6159V84.7757H165.456V79.2077C165.456 76.3438 164.872 74.2399 163.704 72.8959C162.536 71.5357 160.816 70.8557 158.544 70.8557C156.16 70.8557 154.472 71.5757 153.48 73.0157C152.488 74.4396 151.992 76.6399 151.992 79.6159ZM183.552 35.2234L152.496 47.0074V47.1994C153.152 47.1352 153.952 47.0796 154.896 47.0316C155.84 46.9836 156.872 46.9432 157.992 46.9114C159.096 46.8795 160.224 46.8634 161.376 46.8634H183.552V50.6554H148.464V44.6074L177.648 33.4954V33.3274L148.464 22.0474V16.0474H183.552V20.0794H161.088C160.048 20.0794 159.008 20.0633 157.968 20.0314C156.912 19.9994 155.92 19.9594 154.992 19.9114C154.048 19.8634 153.232 19.8154 152.544 19.7674V19.9594L183.552 31.8874V35.2234Z" fill="white"/>
<path d="M140.544 0H0V140.544H140.544V0Z" fill="white"/>
<path d="M106.207 47.636C100.754 47.636 96.8436 51.3692 96.8436 56.6135C96.8436 61.9043 100.867 65.9186 106.149 65.9186C111.431 65.9186 115.455 61.9507 115.455 56.779C115.455 51.3692 111.658 47.636 106.207 47.636ZM106.207 47.636C100.754 47.636 96.8436 51.3692 96.8436 56.6135C96.8436 61.9043 100.867 65.9186 106.149 65.9186C111.431 65.9186 115.455 61.9507 115.455 56.779C115.455 51.3692 111.658 47.636 106.207 47.636ZM106.207 47.636C100.754 47.636 96.8436 51.3692 96.8436 56.6135C96.8436 61.9043 100.867 65.9186 106.149 65.9186C111.431 65.9186 115.455 61.9507 115.455 56.779C115.455 51.3692 111.658 47.636 106.207 47.636ZM106.207 47.636C100.754 47.636 96.8436 51.3692 96.8436 56.6135C96.8436 61.9043 100.867 65.9186 106.149 65.9186C111.431 65.9186 115.455 61.9507 115.455 56.779C115.455 51.3692 111.658 47.636 106.207 47.636ZM12.672 14.976V83.424H127.872V14.976H12.672ZM46.8192 69.3477H20.1721V65.9451L34.4156 50.9725C39.7252 45.4272 41.0112 43.2876 41.0112 40.1034C41.0112 36.1519 37.5002 33.1032 32.9609 33.1032C28.1466 33.1032 24.8832 36.2048 24.8832 40.8707V40.9002H19.9141V40.8707C19.9141 33.8439 25.4541 28.7946 33.102 28.7946C40.4955 28.7946 46.1487 33.6256 46.1487 39.9114C46.1487 44.0283 44.2057 47.2393 37.4417 54.2131L27.5379 64.4636V64.9033H46.833L46.8192 69.3477ZM69.0547 70.2835C61.2622 70.2835 55.6673 65.654 55.21 58.8092H60.265C60.7188 63.0912 64.2609 65.9451 69.1131 65.9451C74.615 65.9451 78.3049 62.3078 78.3049 56.8881C78.3049 51.4683 74.5947 47.7485 69.1991 47.7485C65.4578 47.7485 62.3766 49.3655 60.6916 52.1925H55.877L58.133 29.7403H81.1112V34.1613H62.1635L61.0045 46.8687H61.4619C63.4598 44.617 66.3725 43.4926 70.1687 43.4926C77.9889 43.4926 83.4701 48.9554 83.4701 56.7491C83.4563 64.7912 77.6037 70.2835 69.0685 70.2835H69.0547ZM106.194 70.2536C100.004 70.2536 95.2585 67.0694 92.6895 61.253C91.3486 58.234 90.6916 54.5833 90.6916 50.2184C90.6916 36.6016 96.4585 28.8078 106.534 28.8078C113.529 28.8078 118.725 32.7758 120.038 39.1546H114.77C113.656 35.4509 110.544 33.2024 106.493 33.2024C99.7839 33.2024 95.9873 38.913 95.702 49.4515H96.1594C98.185 45.6088 102.212 43.3571 107.119 43.3571C114.97 43.3571 120.65 48.9324 120.65 56.617C120.65 64.5727 114.65 70.2536 106.207 70.2536H106.194ZM106.194 47.636C100.74 47.636 96.8298 51.3692 96.8298 56.6135C96.8298 61.9043 100.853 65.9186 106.135 65.9186C111.417 65.9186 115.441 61.9507 115.441 56.779C115.455 51.3692 111.658 47.636 106.207 47.636H106.194ZM106.194 47.636C100.74 47.636 96.8298 51.3692 96.8298 56.6135C96.8298 61.9043 100.853 65.9186 106.135 65.9186C111.417 65.9186 115.441 61.9507 115.441 56.779C115.455 51.3692 111.658 47.636 106.207 47.636H106.194ZM106.194 47.636C100.74 47.636 96.8298 51.3692 96.8298 56.6135C96.8298 61.9043 100.853 65.9186 106.135 65.9186C111.417 65.9186 115.441 61.9507 115.441 56.779C115.455 51.3692 111.658 47.636 106.207 47.636H106.194Z" fill="#2498CD"/>
<path d="M23.8446 94.2897C33.3323 94.2897 38.9411 99.9805 38.9411 109.656C38.9411 119.331 33.3529 125.042 23.8446 125.042H12.861V94.2897H23.8446ZM16.8638 121.593H23.5798C30.7188 121.593 34.8626 117.201 34.8626 109.689C34.8626 102.176 30.6741 97.7353 23.5798 97.7353H16.8638V121.593Z" fill="#2498CD"/>
<path d="M66.465 125.042H46.6506V94.2897H66.465V97.7453H50.6465V107.612H65.6502V111.021H50.6396V121.603H66.4581L66.465 125.042Z" fill="#2498CD"/>
<path d="M83.7489 125.042L71.957 94.2897H76.1353L85.5302 120.082H85.8739L95.2689 94.2897H99.4606L87.6691 125.042H83.7489Z" fill="#2498CD"/>
<path d="M107.972 117.006C108.46 120.224 111.651 122.271 116.193 122.271C120.495 122.271 123.663 120.032 123.663 116.98C123.663 114.358 121.668 112.681 117.26 111.63L113.157 110.608C107.373 109.2 104.87 106.686 104.87 102.315C104.87 97.0936 109.412 93.5555 116.173 93.5555C122.363 93.5555 126.967 97.0936 127.301 102.06H123.288C122.734 98.9057 120.028 97.031 116.039 97.031C111.785 97.031 108.969 99.0778 108.969 102.189C108.969 104.597 110.719 105.982 115.131 107.07L118.477 107.92C125.103 109.52 127.762 111.99 127.762 116.517C127.762 122.165 123.13 125.776 115.815 125.776C109.034 125.776 104.357 122.324 103.934 117.016L107.972 117.006Z" fill="#2498CD"/>
</g>
</g>
<defs>
<clipPath id="clip0_207_646">
<rect width="192" height="192" fill="white"/>
</clipPath>
</defs>
</svg>
