<svg width="512" height="512" viewBox="0 0 512 512" fill="none" xmlns="http://www.w3.org/2000/svg">
<g clip-path="url(#clip0_207_662)">
<mask id="mask0_207_662" style="mask-type:luminance" maskUnits="userSpaceOnUse" x="0" y="0" width="512" height="512">
<path d="M512 0H0V512H512V0Z" fill="white"/>
</mask>
<g mask="url(#mask0_207_662)">
<path d="M512 0H0V512H512V0Z" fill="white"/>
<path d="M512 512H0V374.784H512V512Z" fill="#2498CD"/>
<path d="M92.224 468.672C92.224 474.218 90.8373 478.954 88.064 482.879C85.3333 486.762 81.4933 489.728 76.544 491.776C71.5947 493.824 65.7707 494.848 59.072 494.848C55.5307 494.848 52.1813 494.677 49.024 494.336C45.8667 493.995 42.9653 493.505 40.32 492.863C37.6747 492.225 35.3493 491.435 33.344 490.496V480.063C36.544 481.386 40.448 482.623 45.056 483.776C49.664 484.885 54.4853 485.439 59.52 485.439C64.2133 485.439 68.1813 484.821 71.424 483.584C74.6667 482.304 77.12 480.49 78.784 478.144C80.4907 475.754 81.344 472.895 81.344 469.567C81.344 466.369 80.64 463.701 79.232 461.568C77.824 459.392 75.4773 457.429 72.192 455.68C68.9493 453.888 64.512 451.989 58.88 449.984C54.912 448.575 51.4133 447.039 48.384 445.376C45.3547 443.669 42.816 441.75 40.768 439.615C38.72 437.482 37.1627 435.007 36.096 432.191C35.072 429.375 34.56 426.155 34.56 422.528C34.56 417.536 35.8187 413.269 38.336 409.728C40.896 406.144 44.416 403.413 48.896 401.536C53.4187 399.616 58.6027 398.655 64.448 398.655C69.44 398.655 74.048 399.125 78.272 400.064C82.5387 401.002 86.4427 402.261 89.984 403.84L86.592 413.184C83.2213 411.776 79.6373 410.602 75.84 409.663C72.0853 408.726 68.2027 408.256 64.192 408.256C60.1813 408.256 56.7893 408.853 54.016 410.048C51.2853 411.199 49.1947 412.843 47.744 414.976C46.2933 417.109 45.568 419.647 45.568 422.592C45.568 425.877 46.2507 428.607 47.616 430.784C49.024 432.959 51.2427 434.901 54.272 436.608C57.344 438.272 61.3973 440.021 66.432 441.856C71.936 443.861 76.608 445.995 80.448 448.256C84.288 450.475 87.2107 453.205 89.216 456.448C91.2213 459.648 92.224 463.722 92.224 468.672ZM191.019 493.568L179.499 463.872H141.995L130.54 493.568H119.532L156.14 399.616H165.931L202.283 493.568H191.019ZM176.236 454.207L165.291 424.704C165.035 423.936 164.609 422.678 164.011 420.927C163.457 419.178 162.88 417.365 162.284 415.488C161.687 413.611 161.195 412.097 160.811 410.943C160.385 412.694 159.915 414.442 159.403 416.192C158.934 417.898 158.465 419.499 157.995 420.992C157.526 422.443 157.12 423.68 156.78 424.704L145.644 454.207H176.236ZM236.247 493.568V400H247.127V483.84H288.663V493.568H236.247ZM377.795 493.568H325.699V400H377.795V409.6H336.579V439.871H375.427V449.343H336.579V483.968H377.795V493.568ZM472.302 468.672C472.302 474.218 470.915 478.954 468.142 482.879C465.411 486.762 461.571 489.728 456.622 491.776C451.673 493.824 445.849 494.848 439.15 494.848C435.609 494.848 432.259 494.677 429.102 494.336C425.945 493.995 423.043 493.505 420.398 492.863C417.753 492.225 415.428 491.435 413.422 490.496V480.063C416.622 481.386 420.526 482.623 425.134 483.776C429.742 484.885 434.563 485.439 439.598 485.439C444.291 485.439 448.259 484.821 451.502 483.584C454.745 482.304 457.198 480.49 458.862 478.144C460.569 475.754 461.422 472.895 461.422 469.567C461.422 466.369 460.718 463.701 459.31 461.568C457.902 459.392 455.555 457.429 452.27 455.68C449.027 453.888 444.59 451.989 438.958 449.984C434.99 448.575 431.491 447.039 428.462 445.376C425.433 443.669 422.894 441.75 420.846 439.615C418.798 437.482 417.241 435.007 416.174 432.191C415.15 429.375 414.638 426.155 414.638 422.528C414.638 417.536 415.897 413.269 418.414 409.728C420.974 406.144 424.494 403.413 428.974 401.536C433.497 399.616 438.681 398.655 444.526 398.655C449.518 398.655 454.126 399.125 458.35 400.064C462.617 401.002 466.521 402.261 470.062 403.84L466.67 413.184C463.3 411.776 459.716 410.602 455.918 409.663C452.164 408.726 448.281 408.256 444.27 408.256C440.26 408.256 436.867 408.853 434.094 410.048C431.363 411.199 429.273 412.843 427.822 414.976C426.371 417.109 425.646 419.647 425.646 422.592C425.646 425.877 426.329 428.607 427.694 430.784C429.102 432.959 431.321 434.901 434.35 436.608C437.422 438.272 441.475 440.021 446.51 441.856C452.014 443.861 456.686 445.995 460.526 448.256C464.366 450.475 467.289 453.205 469.294 456.448C471.299 459.648 472.302 463.722 472.302 468.672Z" fill="white"/>
<path d="M374.784 -3.05176e-05V374.784H512V-3.05176e-05H374.784Z" fill="#2498CD"/>
<path d="M404.161 300.48C404.161 305.642 405.056 310.293 406.848 314.431C408.598 318.527 411.158 322.026 414.528 324.927C417.856 327.786 421.888 329.984 426.624 331.52C431.36 333.056 436.693 333.824 442.624 333.824C450.475 333.824 457.301 332.607 463.104 330.176C468.864 327.701 473.323 324.032 476.48 319.168C479.638 314.261 481.217 308.139 481.217 300.8C481.217 296.619 480.874 292.693 480.193 289.024C479.466 285.312 478.571 281.706 477.504 278.208H486.976C488.256 281.621 489.195 285.205 489.792 288.96C490.433 292.714 490.752 297.173 490.752 302.336C490.752 311.851 488.789 319.807 484.864 326.207C480.896 332.565 475.307 337.345 468.096 340.543C460.885 343.701 452.373 345.28 442.561 345.28C435.477 345.28 429.013 344.298 423.168 342.335C417.28 340.33 412.203 337.429 407.936 333.631C403.669 329.791 400.384 325.098 398.08 319.551C395.733 313.962 394.56 307.562 394.56 300.351C394.56 295.616 395.03 291.05 395.969 286.656C396.906 282.261 398.251 278.293 400 274.751L409.216 279.103C407.851 282.09 406.678 285.376 405.697 288.96C404.673 292.501 404.161 296.341 404.161 300.48ZM395.904 211.669C395.904 203.989 396.863 197.652 398.785 192.66C400.662 187.625 403.541 183.871 407.424 181.396C411.307 178.921 416.256 177.684 422.272 177.684C427.221 177.684 431.36 178.58 434.688 180.372C437.973 182.164 440.64 184.511 442.688 187.412C444.736 190.313 446.314 193.407 447.425 196.693L489.472 171.028V183.7L450.432 206.612V226.068H489.472V236.948H395.904V211.669ZM405.312 212.309V226.068H441.216V211.22C441.216 203.583 439.659 197.973 436.544 194.389C433.43 190.762 428.843 188.948 422.784 188.948C416.427 188.948 411.926 190.868 409.281 194.708C406.634 198.505 405.312 204.373 405.312 212.309ZM489.472 93.929L406.656 125.353V125.865C408.405 125.694 410.539 125.545 413.056 125.417C415.573 125.289 418.326 125.182 421.313 125.097C424.255 125.012 427.264 124.969 430.336 124.969H489.472V135.081H395.904V118.953L473.728 89.321V88.873L395.904 58.793V42.793H489.472V53.545H429.568C426.795 53.545 424.021 53.5023 421.248 53.417C418.432 53.3317 415.787 53.225 413.312 53.097C410.795 52.969 408.619 52.841 406.784 52.713V53.225L489.472 85.033V93.929Z" fill="white"/>
<path d="M374.784 0H0V374.784H374.784V0Z" fill="white"/>
<path d="M283.22 127.029C268.676 127.029 258.25 136.985 258.25 150.969C258.25 165.078 268.979 175.783 283.064 175.783C297.149 175.783 307.879 165.202 307.879 151.411C307.879 136.985 297.755 127.029 283.22 127.029ZM283.22 127.029C268.676 127.029 258.25 136.985 258.25 150.969C258.25 165.078 268.979 175.783 283.064 175.783C297.149 175.783 307.879 165.202 307.879 151.411C307.879 136.985 297.755 127.029 283.22 127.029ZM283.22 127.029C268.676 127.029 258.25 136.985 258.25 150.969C258.25 165.078 268.979 175.783 283.064 175.783C297.149 175.783 307.879 165.202 307.879 151.411C307.879 136.985 297.755 127.029 283.22 127.029ZM283.22 127.029C268.676 127.029 258.25 136.985 258.25 150.969C258.25 165.078 268.979 175.783 283.064 175.783C297.149 175.783 307.879 165.202 307.879 151.411C307.879 136.985 297.755 127.029 283.22 127.029ZM33.792 39.936V222.464H340.992V39.936H33.792ZM124.851 184.927H53.7921V175.854L91.7749 135.927C105.934 121.139 109.363 115.433 109.363 106.942C109.363 96.4051 100 88.2752 87.8959 88.2752C75.0577 88.2752 66.3552 96.5462 66.3552 108.988V109.067H53.1043V108.988C53.1043 90.2503 67.8775 76.7856 88.2719 76.7856C107.988 76.7856 123.063 89.6683 123.063 106.43C123.063 117.409 117.882 125.971 99.8446 144.568L73.4345 171.903V173.075H124.888L124.851 184.927ZM184.146 187.423C163.366 187.423 148.446 175.077 147.227 156.825H160.707C161.917 168.243 171.362 175.854 184.302 175.854C198.973 175.854 208.813 166.154 208.813 151.702C208.813 137.249 198.919 127.329 184.531 127.329C174.554 127.329 166.338 131.641 161.844 139.18H149.005L155.021 79.3075H216.296V91.0968H165.769L162.679 124.983H163.898C169.226 118.979 176.993 115.98 187.117 115.98C207.97 115.98 222.587 130.548 222.587 151.331C222.55 172.776 206.943 187.423 184.183 187.423H184.146ZM283.183 187.343C266.677 187.343 254.023 178.852 247.172 163.341C243.596 155.291 241.844 145.555 241.844 133.916C241.844 97.6043 257.223 76.8208 284.091 76.8208C302.744 76.8208 316.599 87.4022 320.102 104.412H306.054C303.083 94.5358 294.784 88.5396 283.981 88.5396C266.091 88.5396 255.966 103.768 255.205 131.871H256.425C261.827 121.624 272.564 115.619 285.65 115.619C306.586 115.619 321.735 130.486 321.735 150.979C321.735 172.194 305.733 187.343 283.22 187.343H283.183ZM283.183 127.029C268.639 127.029 258.213 136.985 258.213 150.969C258.213 165.078 268.942 175.783 283.027 175.783C297.113 175.783 307.842 165.202 307.842 151.411C307.879 136.985 297.755 127.029 283.22 127.029H283.183ZM283.183 127.029C268.639 127.029 258.213 136.985 258.213 150.969C258.213 165.078 268.942 175.783 283.027 175.783C297.113 175.783 307.842 165.202 307.842 151.411C307.879 136.985 297.755 127.029 283.22 127.029H283.183ZM283.183 127.029C268.639 127.029 258.213 136.985 258.213 150.969C258.213 165.078 268.942 175.783 283.027 175.783C297.113 175.783 307.842 165.202 307.842 151.411C307.879 136.985 297.755 127.029 283.22 127.029H283.183Z" fill="#2498CD"/>
<path d="M63.5856 251.439C88.8861 251.439 103.843 266.615 103.843 292.415C103.843 318.216 88.9411 333.444 63.5856 333.444H34.2961V251.439H63.5856ZM44.9702 324.248H62.8795C81.9167 324.248 92.9668 312.537 92.9668 292.504C92.9668 272.469 81.7975 260.627 62.8795 260.627H44.9702V324.248Z" fill="#2498CD"/>
<path d="M177.24 333.444H124.402V251.439H177.24V260.654H135.057V286.966H175.067V296.057H135.039V324.274H177.222L177.24 333.444Z" fill="#2498CD"/>
<path d="M223.33 333.444L191.885 251.439H203.027L228.081 320.218H228.997L254.05 251.439H265.228L233.784 333.444H223.33Z" fill="#2498CD"/>
<path d="M287.924 312.017C289.226 320.597 297.736 326.055 309.849 326.055C321.321 326.055 329.767 320.086 329.767 311.947C329.767 304.954 324.448 300.484 312.693 297.68L301.752 294.955C286.328 291.199 279.652 284.497 279.652 272.84C279.652 258.916 291.766 249.481 309.795 249.481C326.301 249.481 338.579 258.916 339.469 272.161H328.767C327.291 263.749 320.074 258.749 309.436 258.749C298.094 258.749 290.584 264.207 290.584 272.505C290.584 278.924 295.251 282.619 307.016 285.52L315.939 287.786C333.609 292.054 340.698 298.64 340.698 310.712C340.698 325.773 328.346 335.402 308.84 335.402C290.758 335.402 278.286 326.196 277.158 312.044L287.924 312.017Z" fill="#2498CD"/>
</g>
</g>
<defs>
<clipPath id="clip0_207_662">
<rect width="512" height="512" fill="white"/>
</clipPath>
</defs>
</svg>
