<svg width="32" height="32" viewBox="0 0 32 32" fill="none" xmlns="http://www.w3.org/2000/svg">
<g clip-path="url(#clip0_207_614)">
<mask id="mask0_207_614" style="mask-type:luminance" maskUnits="userSpaceOnUse" x="0" y="0" width="32" height="32">
<path d="M32 0H0V32H32V0Z" fill="white"/>
</mask>
<g mask="url(#mask0_207_614)">
<path d="M32 0H0V32H32V0Z" fill="white"/>
<path d="M32 32H0V23.424H32V32Z" fill="#2498CD"/>
<path d="M5.764 29.292C5.764 29.6387 5.67733 29.9347 5.504 30.18C5.33333 30.4227 5.09333 30.608 4.784 30.736C4.47467 30.864 4.11067 30.928 3.692 30.928C3.47067 30.928 3.26133 30.9173 3.064 30.896C2.86667 30.8747 2.68533 30.844 2.52 30.804C2.35467 30.764 2.20933 30.7147 2.084 30.656V30.004C2.284 30.0867 2.528 30.164 2.816 30.236C3.104 30.3053 3.40533 30.34 3.72 30.34C4.01333 30.34 4.26133 30.3013 4.464 30.224C4.66667 30.144 4.82 30.0307 4.924 29.884C5.03067 29.7347 5.084 29.556 5.084 29.348C5.084 29.148 5.04 28.9813 4.952 28.848C4.864 28.712 4.71733 28.5893 4.512 28.48C4.30933 28.368 4.032 28.2493 3.68 28.124C3.432 28.036 3.21333 27.94 3.024 27.836C2.83467 27.7293 2.676 27.6093 2.548 27.476C2.42 27.3427 2.32267 27.188 2.256 27.012C2.192 26.836 2.16 26.6347 2.16 26.408C2.16 26.096 2.23867 25.8293 2.396 25.608C2.556 25.384 2.776 25.2133 3.056 25.096C3.33867 24.976 3.66267 24.916 4.028 24.916C4.34 24.916 4.628 24.9453 4.892 25.004C5.15867 25.0627 5.40267 25.1413 5.624 25.24L5.412 25.824C5.20133 25.736 4.97733 25.6627 4.74 25.604C4.50533 25.5453 4.26267 25.516 4.012 25.516C3.76133 25.516 3.54933 25.5533 3.376 25.628C3.20533 25.7 3.07467 25.8027 2.984 25.936C2.89333 26.0693 2.848 26.228 2.848 26.412C2.848 26.6173 2.89067 26.788 2.976 26.924C3.064 27.06 3.20267 27.1813 3.392 27.288C3.584 27.392 3.83733 27.5013 4.152 27.616C4.496 27.7413 4.788 27.8747 5.028 28.016C5.268 28.1547 5.45067 28.3253 5.576 28.528C5.70133 28.728 5.764 28.9827 5.764 29.292ZM11.9387 30.848L11.2187 28.992H8.87469L8.15872 30.848H7.47072L9.75872 24.976H10.3707L12.6427 30.848H11.9387ZM11.0147 28.388L10.3307 26.544C10.3147 26.496 10.2881 26.4173 10.2507 26.308C10.2161 26.1987 10.18 26.0853 10.1427 25.968C10.1054 25.8507 10.0747 25.756 10.0507 25.684C10.0241 25.7933 9.99469 25.9027 9.96269 26.012C9.93338 26.1187 9.90406 26.2187 9.87469 26.312C9.84538 26.4027 9.82003 26.48 9.79872 26.544L9.10272 28.388H11.0147ZM14.7654 30.848V25H15.4454V30.24H18.0414V30.848H14.7654ZM23.6122 30.848H20.3562V25H23.6122V25.6H21.0362V27.492H23.4642V28.084H21.0362V30.248H23.6122V30.848ZM29.5188 29.292C29.5188 29.6387 29.4322 29.9347 29.2589 30.18C29.0882 30.4227 28.8482 30.608 28.5389 30.736C28.2296 30.864 27.8655 30.928 27.4468 30.928C27.2255 30.928 27.0162 30.9173 26.8189 30.896C26.6216 30.8747 26.4402 30.844 26.2749 30.804C26.1096 30.764 25.9642 30.7147 25.8388 30.656V30.004C26.0388 30.0867 26.2829 30.164 26.5709 30.236C26.8589 30.3053 27.1602 30.34 27.4749 30.34C27.7682 30.34 28.0162 30.3013 28.2189 30.224C28.4216 30.144 28.5748 30.0307 28.6788 29.884C28.7855 29.7347 28.8388 29.556 28.8388 29.348C28.8388 29.148 28.7949 28.9813 28.7069 28.848C28.6189 28.712 28.4722 28.5893 28.2669 28.48C28.0642 28.368 27.7869 28.2493 27.4349 28.124C27.1869 28.036 26.9682 27.94 26.7789 27.836C26.5896 27.7293 26.4308 27.6093 26.3028 27.476C26.1748 27.3427 26.0776 27.188 26.0109 27.012C25.9469 26.836 25.9149 26.6347 25.9149 26.408C25.9149 26.096 25.9935 25.8293 26.1508 25.608C26.3108 25.384 26.5309 25.2133 26.8109 25.096C27.0936 24.976 27.4175 24.916 27.7828 24.916C28.0948 24.916 28.3828 24.9453 28.6468 25.004C28.9135 25.0627 29.1576 25.1413 29.3789 25.24L29.1668 25.824C28.9562 25.736 28.7322 25.6627 28.4948 25.604C28.2602 25.5453 28.0175 25.516 27.7668 25.516C27.5162 25.516 27.3042 25.5533 27.1309 25.628C26.9602 25.7 26.8296 25.8027 26.7389 25.936C26.6482 26.0693 26.6029 26.228 26.6029 26.412C26.6029 26.6173 26.6456 26.788 26.7309 26.924C26.8189 27.06 26.9576 27.1813 27.1469 27.288C27.3389 27.392 27.5922 27.5013 27.9069 27.616C28.2509 27.7413 28.5428 27.8747 28.7828 28.016C29.0228 28.1547 29.2056 28.3253 29.3309 28.528C29.4562 28.728 29.5188 28.9827 29.5188 29.292Z" fill="white"/>
<path d="M23.424 -1.90735e-06V23.424H32V-1.90735e-06H23.424Z" fill="#2498CD"/>
<path d="M25.26 18.78C25.26 19.1027 25.316 19.3933 25.428 19.652C25.5373 19.908 25.6973 20.1267 25.908 20.308C26.116 20.4867 26.368 20.624 26.664 20.72C26.96 20.816 27.2933 20.864 27.664 20.864C28.1547 20.864 28.5813 20.788 28.944 20.636C29.304 20.4813 29.5827 20.252 29.78 19.948C29.9773 19.6413 30.076 19.2587 30.076 18.8C30.076 18.5387 30.0547 18.2933 30.012 18.064C29.9667 17.832 29.9107 17.6067 29.844 17.388H30.436C30.516 17.6013 30.5747 17.8253 30.612 18.06C30.652 18.2947 30.672 18.5733 30.672 18.896C30.672 19.4907 30.5493 19.988 30.304 20.388C30.056 20.7853 29.7067 21.084 29.256 21.284C28.8053 21.4813 28.2733 21.58 27.66 21.58C27.2173 21.58 26.8133 21.5187 26.448 21.396C26.08 21.2707 25.7627 21.0893 25.496 20.852C25.2293 20.612 25.024 20.3187 24.88 19.972C24.7333 19.6227 24.66 19.2227 24.66 18.772C24.66 18.476 24.6893 18.1907 24.748 17.916C24.8067 17.6413 24.8907 17.3933 25 17.172L25.576 17.444C25.4907 17.6307 25.4173 17.836 25.356 18.06C25.292 18.2813 25.26 18.5213 25.26 18.78ZM24.744 13.2293C24.744 12.7493 24.804 12.3533 24.924 12.0413C25.0413 11.7266 25.2213 11.492 25.464 11.3373C25.7067 11.1826 26.016 11.1053 26.392 11.1053C26.7013 11.1053 26.96 11.1613 27.168 11.2733C27.3733 11.3853 27.54 11.532 27.668 11.7133C27.796 11.8946 27.8947 12.0879 27.964 12.2933L30.592 10.6893V11.4813L28.152 12.9133V14.1293H30.592V14.8093H24.744V13.2293ZM25.332 13.2693V14.1293H27.576V13.2013C27.576 12.724 27.4787 12.3733 27.284 12.1493C27.0893 11.9226 26.8027 11.8093 26.424 11.8093C26.0267 11.8093 25.7453 11.9293 25.58 12.1693C25.4147 12.4066 25.332 12.7733 25.332 13.2693ZM30.592 5.87056L25.416 7.83456V7.86656C25.5253 7.85587 25.6587 7.84659 25.816 7.83859C25.9733 7.83059 26.1453 7.82387 26.332 7.81856C26.516 7.81325 26.704 7.81056 26.896 7.81056H30.592V8.44256H24.744V7.43456L29.608 5.58256V5.55456L24.744 3.67456V2.67456H30.592V3.34656H26.848C26.6747 3.34656 26.5013 3.34389 26.328 3.33856C26.152 3.33323 25.9867 3.32656 25.832 3.31856C25.6747 3.31056 25.5387 3.30256 25.424 3.29456V3.32656L30.592 5.31456V5.87056Z" fill="white"/>
<path d="M23.424 0H0V23.424H23.424V0Z" fill="white"/>
<path d="M17.7012 7.93933C16.7923 7.93933 16.1406 8.56154 16.1406 9.43558C16.1406 10.3174 16.8112 10.9864 17.6915 10.9864C18.5718 10.9864 19.2424 10.3251 19.2424 9.46317C19.2424 8.56154 18.6097 7.93933 17.7012 7.93933ZM17.7012 7.93933C16.7923 7.93933 16.1406 8.56154 16.1406 9.43558C16.1406 10.3174 16.8112 10.9864 17.6915 10.9864C18.5718 10.9864 19.2424 10.3251 19.2424 9.46317C19.2424 8.56154 18.6097 7.93933 17.7012 7.93933ZM17.7012 7.93933C16.7923 7.93933 16.1406 8.56154 16.1406 9.43558C16.1406 10.3174 16.8112 10.9864 17.6915 10.9864C18.5718 10.9864 19.2424 10.3251 19.2424 9.46317C19.2424 8.56154 18.6097 7.93933 17.7012 7.93933ZM17.7012 7.93933C16.7923 7.93933 16.1406 8.56154 16.1406 9.43558C16.1406 10.3174 16.8112 10.9864 17.6915 10.9864C18.5718 10.9864 19.2424 10.3251 19.2424 9.46317C19.2424 8.56154 18.6097 7.93933 17.7012 7.93933ZM2.112 2.496V13.904H21.312V2.496H2.112ZM7.8032 11.558H3.36201V10.9908L5.73593 8.49542C6.62086 7.5712 6.8352 7.21459 6.8352 6.6839C6.8352 6.02532 6.25003 5.5172 5.49349 5.5172C4.6911 5.5172 4.1472 6.03414 4.1472 6.81178V6.8167H3.31902V6.81178C3.31902 5.64065 4.24234 4.7991 5.51699 4.7991C6.74925 4.7991 7.69146 5.60427 7.69146 6.6519C7.69146 7.33805 7.36762 7.87322 6.24029 9.03552L4.58966 10.7439V10.8172H7.8055L7.8032 11.558ZM11.5091 11.7139C10.2104 11.7139 9.27789 10.9423 9.20166 9.80154H10.0442C10.1198 10.5152 10.7101 10.9908 11.5188 10.9908C12.4358 10.9908 13.0508 10.3846 13.0508 9.48134C13.0508 8.57805 12.4324 7.95808 11.5332 7.95808C10.9096 7.95808 10.3961 8.22758 10.1153 8.69875H9.31283L9.68883 4.95672H13.5185V5.69355H10.3606L10.1674 7.81146H10.2436C10.5766 7.43616 11.0621 7.24877 11.6948 7.24877C12.9981 7.24877 13.9117 8.15923 13.9117 9.45818C13.9094 10.7985 12.934 11.7139 11.5114 11.7139H11.5091ZM17.6989 11.7089C16.6673 11.7089 15.8764 11.1782 15.4483 10.2088C15.2248 9.70566 15.1153 9.09722 15.1153 8.36973C15.1153 6.10027 16.0764 4.8013 17.7557 4.8013C18.9215 4.8013 19.7875 5.46264 20.0064 6.52576H19.1284C18.9427 5.90849 18.424 5.53373 17.7488 5.53373C16.6307 5.53373 15.9979 6.4855 15.9503 8.24192H16.0266C16.3642 7.60147 17.0353 7.22618 17.8531 7.22618C19.1616 7.22618 20.1084 8.15539 20.1084 9.43616C20.1084 10.7621 19.1083 11.7089 17.7012 11.7089H17.6989ZM17.6989 7.93933C16.79 7.93933 16.1383 8.56154 16.1383 9.43558C16.1383 10.3174 16.8089 10.9864 17.6892 10.9864C18.5695 10.9864 19.2401 10.3251 19.2401 9.46317C19.2424 8.56154 18.6097 7.93933 17.7012 7.93933H17.6989ZM17.6989 7.93933C16.79 7.93933 16.1383 8.56154 16.1383 9.43558C16.1383 10.3174 16.8089 10.9864 17.6892 10.9864C18.5695 10.9864 19.2401 10.3251 19.2401 9.46317C19.2424 8.56154 18.6097 7.93933 17.7012 7.93933H17.6989ZM17.6989 7.93933C16.79 7.93933 16.1383 8.56154 16.1383 9.43558C16.1383 10.3174 16.8089 10.9864 17.6892 10.9864C18.5695 10.9864 19.2401 10.3251 19.2401 9.46317C19.2424 8.56154 18.6097 7.93933 17.7012 7.93933H17.6989Z" fill="#2498CD"/>
<path d="M3.9741 15.7149C5.55538 15.7149 6.49018 16.6634 6.49018 18.276C6.49018 19.8885 5.55882 20.8403 3.9741 20.8403H2.14351V15.7149H3.9741ZM2.81064 20.2655H3.92997C5.1198 20.2655 5.81043 19.5336 5.81043 18.2815C5.81043 17.0293 5.11235 16.2892 3.92997 16.2892H2.81064V20.2655Z" fill="#2498CD"/>
<path d="M11.0775 20.8403H7.7751V15.7149H11.0775V16.2909H8.44109V17.9354H10.9417V18.5036H8.43994V20.2671H11.0764L11.0775 20.8403Z" fill="#2498CD"/>
<path d="M13.9581 20.8403L11.9928 15.7149H12.6892L14.255 20.0136H14.3123L15.8781 15.7149H16.5768L14.6115 20.8403H13.9581Z" fill="#2498CD"/>
<path d="M17.9953 19.5011C18.0766 20.0373 18.6085 20.3784 19.3656 20.3784C20.0826 20.3784 20.6104 20.0054 20.6104 19.4967C20.6104 19.0596 20.278 18.7802 19.5433 18.605L18.8595 18.4347C17.8955 18.1999 17.4783 17.7811 17.4783 17.0525C17.4783 16.1823 18.2354 15.5926 19.3622 15.5926C20.3938 15.5926 21.1612 16.1823 21.2168 17.01H20.548C20.4557 16.4843 20.0046 16.1718 19.3398 16.1718C18.6308 16.1718 18.1615 16.513 18.1615 17.0316C18.1615 17.4328 18.4532 17.6637 19.1885 17.845L19.7462 17.9866C20.8506 18.2534 21.2936 18.665 21.2936 19.4195C21.2936 20.3608 20.5216 20.9626 19.3025 20.9626C18.1724 20.9626 17.3929 20.3873 17.3224 19.5027L17.9953 19.5011Z" fill="#2498CD"/>
</g>
</g>
<defs>
<clipPath id="clip0_207_614">
<rect width="32" height="32" fill="white"/>
</clipPath>
</defs>
</svg>
