<svg aria-hidden="true" style="position: absolute; width: 0; height: 0; overflow: hidden;" version="1.1" xmlns="http://www.w3.org/2000/svg" xmlns:xlink="http://www.w3.org/1999/xlink">
<defs>
<symbol id="worning" viewBox="0 0 34 32">
<path fill="#eb5757" style="fill: var(--color1, #eb5757)" d="M27.733 23.552c0 0.666-0.228 1.173-0.685 1.523s-1.017 0.525-1.682 0.525h-22.999c-0.664 0-1.225-0.179-1.682-0.538s-0.685-0.862-0.685-1.51c0-0.512 0.149-1.033 0.449-1.562l11.487-20.582c0.548-0.939 1.196-1.408 1.944-1.408s1.379 0.469 1.894 1.408l11.512 20.608c0.299 0.546 0.448 1.058 0.448 1.536zM15.598 10.47v-3.738h-3.464v3.738c0 0.239 0.017 0.465 0.050 0.678s0.079 0.452 0.137 0.717c0.058 0.265 0.104 0.491 0.137 0.678l0.648 4.147h1.47l0.673-4.147c0.033-0.171 0.083-0.393 0.149-0.666s0.116-0.516 0.149-0.73c0.033-0.213 0.050-0.439 0.050-0.678zM15.598 20.378c0-0.495-0.17-0.913-0.511-1.254s-0.752-0.512-1.233-0.512c-0.465 0-0.868 0.171-1.209 0.512s-0.511 0.759-0.511 1.254c0 0.495 0.17 0.917 0.511 1.267s0.743 0.525 1.209 0.525c0.482 0 0.893-0.175 1.233-0.525s0.511-0.772 0.511-1.267z"></path>
</symbol>
<symbol id="linkedin" viewBox="0 0 32 32">
<path d="M7.25 32v-21.099h-6.563v21.099h6.563zM3.933 8.079c2.117 0 3.81-1.764 3.81-3.881 0-2.046-1.694-3.74-3.81-3.74-2.046 0-3.74 1.694-3.74 3.74 0 2.117 1.694 3.881 3.74 3.881zM31.736 32h0.071v-11.573c0-5.645-1.27-10.020-7.903-10.020-3.175 0-5.292 1.764-6.21 3.387h-0.070v-2.893h-6.28v21.099h6.562v-10.444c0-2.752 0.494-5.363 3.881-5.363s3.458 3.105 3.458 5.575v10.232h6.492z"></path>
</symbol>
<symbol id="book" viewBox="0 0 36 32">
<path  d="M32.891 2.392c-3.324 0.189-9.931 0.877-14.010 3.378-0.282 0.173-0.441 0.479-0.441 0.8v22.11c0 0.702 0.766 1.145 1.412 0.82 4.196-2.116 10.265-2.693 13.266-2.851 1.025-0.054 1.821-0.877 1.821-1.863v-20.529c0.001-1.076-0.931-1.929-2.048-1.865zM16.058 5.77c-4.078-2.501-10.685-3.188-14.009-3.378-1.117-0.063-2.049 0.789-2.049 1.865v20.529c0 0.987 0.796 1.809 1.821 1.863 3.002 0.158 9.074 0.736 13.271 2.853 0.644 0.325 1.408-0.118 1.408-0.818v-22.125c0-0.321-0.159-0.616-0.441-0.789z"></path>
</symbol>
<symbol id="angle" viewBox="0 0 15 32">
<path fill="#fff" style="fill: var(--color2, #fff)" d="M13.281 17.006l-8.053 8.053c-0.557 0.557-1.457 0.557-2.007 0l-1.338-1.338c-0.557-0.557-0.557-1.457 0-2.007l5.708-5.708-5.708-5.708c-0.557-0.557-0.557-1.457 0-2.007l1.332-1.35c0.557-0.557 1.457-0.557 2.007 0l8.053 8.053c0.563 0.557 0.563 1.457 0.006 2.013z"></path>
</symbol>
</defs>
</svg>
